P3
15 21
255
  0   0   0     0   0   0     8   0   0     0   0   0     0   0   0     0   0   0     8   0   0     0   0   0     0   0   0     0   0   0     8   0   0     0   0   0     0   0   0     0   0   0     8   0   0     0   0   0     0   0   0     0   0   0     8   0   0     0   0   0     0   0   0
  0   0   0     8   0   0     0   0   0     0   0   0     0   0   0     8   0   0     0   0   0     0   0   0     0   0   0     8   0   0     0   0   0     0   0   0     0   0   0     8   0   0     0   0   0     0   0   0     0   0   0     8   0   0     0   0   0     0   0   0     0   0   0
  8   0   0     0   0   0     0   0   0     0   0   0     8   0   0     0   0   0     0   0   0     0   0   0     8   0   0     0   0   0     0   0   0     0   0   0     8   0   0     0   0   0     0   0   0     0   0   0     8   0   0     0   0   0     0   0   0     0   0   0     8   0   0
  0   0   0     0   0   0     0   0   0     8   0   0     0   0   0     0   0   0     0   0   0     8   0   0     0   0   0     0   0   0     0   0   0     8   0   0     0   0   0     0   0   0     0   0   0     8   0   0     0   0   0     0   0   0     0   0   0     8   0   0     0   0   0
  0   0   0     0   0   0     8   0   0     0   0   0     0   0   0     0   0   0     8   0   0     0   0   0     0   0   0     0   0   0     8   0   0     0   0   0     0   0   0     0   0   0     8   0   0     0   0   0     0   0   0     0   0   0     8   0   0     0   0   0     0   0   0
  0   0   0     8   0   0     0   0   0     0   0   0     0   0   0     8   0   0     0   0   0     0   0   0     0   0   0     8   0   0     0   0   0     0   0   0     0   0   0     8   0   0     0   0   0     0   0   0     0   0   0     8   0   0     0   0   0     0   0   0     0   0   0
  8 255 255     0 255 255     0 255 255     0   0   0     8   0   0     0   0   0     0   0   0     0   0   0     8   0   0     0   0   0     0   0   0     0   0   0     8   0   0     0   0   0     0   0   0     0 255 255     8   0   0     0 255 255     0   0   0     0   0   0     8   0   0
  0   0   0     0   0   0     0   0   0     8   0   0     0   0   0     0   0   0     0   0   0     8   0   0     0   0   0     0 255 255     0   0   0     8 255 255     0   0   0     0   0   0     0   0   0     8   0   0     0   0   0     0   0   0     0   0   0     8   0   0     0   0   0
  0   0   0     0   0   0     8   0   0     0   0   0     0 255 255     0   0   0     8   0   0     0   0   0     0   0   0     0   0   0     8   0   0     0   0   0     0   0   0     0   0   0     8   0   0     0   0   0     0 255 255     0   0   0     8 255 255     0 255 255     0 255 255
  0   0   0     8   0   0     0   0   0     0   0   0     0   0   0     8   0   0     0   0   0     0   0   0     0   0   0     8   0   0     0   0   0     0 255 255     0   0   0     8 255 255     0   0   0     0 255 255     0   0   0     8   0   0     0   0   0     0   0   0     0   0   0
  8   0   0     0   0   0     0   0   0     0   0   0     8   0   0     0   0   0     0   0   0     0 255 255     8   0   0     0   0   0     0 255 255     0   0   0     8   0   0     0   0   0     0   0   0     0   0   0     8   0   0     0   0   0     0   0   0     0   0   0     8   0   0
  0 255 255     0   0   0     0 255 255     8   0   0     0   0   0     0   0   0     0   0   0     8   0   0     0   0   0     0   0   0     0   0   0     8   0   0     0   0   0     0   0   0     0   0   0     8 255 255     0   0   0     0 255 255     0   0   0     8   0   0     0   0   0
  0   0   0     0   0   0     8   0   0     0   0   0     0   0   0     0   0   0     8   0   0     0   0   0     0   0   0     0   0   0     8   0   0     0   0   0     0   0   0     0   0   0     8   0   0     0   0   0     0   0   0     0   0   0     8   0   0     0   0   0     0   0   0
  0   0   0     8   0   0     0   0   0     0   0   0     0   0   0     8   0   0     0   0   0     0   0   0     0   0   0     8   0   0     0   0   0     0   0   0     0   0   0     8   0   0     0   0   0     0   0   0     0   0   0     8   0   0     0   0   0     0   0   0     0   0   0
  8   0   0     0   0   0     0   0   0     0   0   0     8   0   0     0   0   0     0   0   0     0   0   0     8   0   0     0   0   0     0   0   0     0   0   0     8   0   0     0   0   0     0   0   0     0   0   0     8   0   0     0   0   0     0   0   0     0   0   0     8   0   0
