P3
21 15
255
  8   0   0     8   0   0     8   0   0     8   0   0     8   0   0     8   0   0     8   0   0     8   0   0     8   0   0     8   0   0     8   0   0     8   0   0     8   0   0     8   0   0     8   0   0
  8   0   0     8   0   0     8   0   0     8   0   0     8   0   0     8   0   0     8   0   0     8   0   0     8   0   0     8   0   0     8   0   0     8   0   0     8   0   0     8   0   0     8   0   0
  8   0   0     8   0   0     8   0   0     8   0   0     8   0   0     8   0   0     8   0   0     8   0   0     8   0   0     8   0   0     8   0   0     8   0   0     8   0   0     8   0   0     8   0   0
  8   0   0     8   0   0     8   0   0     8   0   0     8   0   0     8   0   0     8   0   0     8   0   0     8   0   0     8   0   0     8   0   0     8   0   0     8   0   0     8   0   0     8   0   0
  8   0   0     8   0   0     8   0   0     8   0   0     8   0   0     8   0   0     8   0   0     8   0   0     8   0   0     8   0   0     8   0   0     8   0   0     8   0   0     8   0   0     8   0   0
  8   0   0     8   0   0     8   0   0     8   0   0     8   0   0     8   0   0     8   0   0     8   0   0     8   0   0     8   0   0     8   0   0     8   0   0     8   0   0     8   0   0     8   0   0
  8   0   0     8   0   0     8   0   0     8   0   0     8   0   0     8   0   0     8   0   0     8   0   0     8   0   0     8   0   0     8   0   0     8   0   0     8   0   0     8   0   0     8   0   0
  8   0   0     8   0   0     8   0   0     8   0   0     8   0   0     8   0   0     8   0   0     8   0   0     8   0   0     8   0   0     8   0   0     8   0   0     8   0   0     8   0   0     8   0   0
  8   0   0     8   0   0     8   0   0     8   0   0     8   0   0     8   0   0     8 255 255     8 255 255     8 255 255     8   0   0     8   0   0     8   0   0     8   0   0     8   0   0     8   0   0
  8   0   0     8   0   0     8   0   0     8   0   0     8   0   0     8   0   0     8 255 255     8   0   0     8 255 255     8   0   0     8   0   0     8   0   0     8   0   0     8   0   0     8   0   0
  8   0   0     8   0   0     8   0   0     8   0   0     8   0   0     8   0   0     8 255 255     8   0   0     8 255 255     8   0   0     8   0   0     8   0   0     8   0   0     8   0   0     8   0   0
  8   0   0     8   0   0     8   0   0     8   0   0     8   0   0     8   0   0     8   0   0     8 255 255     8   0   0     8   0   0     8   0   0     8   0   0     8   0   0     8   0   0     8   0   0
  8   0   0     8   0   0     8   0   0     8   0   0     8 255 255     8   0   0     8 255 255     8 255 255     8 255 255     8   0   0     8   0   0     8   0   0     8   0   0     8   0   0     8   0   0
  8   0   0     8   0   0     8   0   0     8   0   0     8   0   0     8 255 255     8   0   0     8 255 255     8   0   0     8 255 255     8   0   0     8   0   0     8   0   0     8   0   0     8   0   0
  8   0   0     8   0   0     8   0   0     8   0   0     8   0   0     8   0   0     8   0   0     8 255 255     8   0   0     8   0   0     8 255 255     8   0   0     8   0   0     8   0   0     8   0   0
  8   0   0     8   0   0     8   0   0     8   0   0     8   0   0     8   0   0     8 255 255     8   0   0     8 255 255     8   0   0     8   0   0     8   0   0     8   0   0     8   0   0     8   0   0
  8   0   0     8   0   0     8   0   0     8   0   0     8   0   0     8   0   0     8 255 255     8   0   0     8 255 255     8   0   0     8   0   0     8   0   0     8   0   0     8   0   0     8   0   0
  8   0   0     8   0   0     8   0   0     8   0   0     8   0   0     8   0   0     8   0   0     8   0   0     8   0   0     8   0   0     8   0   0     8   0   0     8   0   0     8   0   0     8   0   0
  8   0   0     8   0   0     8   0   0     8   0   0     8   0   0     8   0   0     8   0   0     8   0   0     8   0   0     8   0   0     8   0   0     8   0   0     8   0   0     8   0   0     8   0   0
  8   0   0     8   0   0     8   0   0     8   0   0     8   0   0     8   0   0     8   0   0     8   0   0     8   0   0     8   0   0     8   0   0     8   0   0     8   0   0     8   0   0     8   0   0
  8   0   0     8   0   0     8   0   0     8   0   0     8   0   0     8   0   0     8   0   0     8   0   0     8   0   0     8   0   0     8   0   0     8   0   0     8   0   0     8   0   0     8   0   0
