P3
6 8
255
  0   0   0   231   0 255     0   0   0     0   0   0     0   0   0     0   0   0     0   0   0     0   0 255
  0   0   0     0   0   0   231   0   0   128   0   0   128   0   0   144   0 255     0   0   0     0   0   0
  0   0   0     0   0   0     0   0   0     0   0   0     0   0   0     0   0   0     0   0   0     0   0   0
  0   0   0     0   0   0     0   0   0     0   0   0     0   0   0     0   0   0     0  32   0     0  32   0
  0  32   0     0   0   0     0   0 128     0   0   0     0   0   0     0   0   0     0  32   0     0   0   1
  0   0 129     0   0   1     0   0   0     0  32   0     0   0   0     0   0   0     0   0 128     0   0   0
