P3
6 8
255
  0   0   0     0   0 255     0   0   0     0   0   0     0   0   0     0   0   0   103   0   0   103   0 255
103   0   0   247   0   0   103   0   0   103   0   0     0   0   0     0   0 255     0   0   0     0   0   0
  0   0   0     0   0   0    16   0   0     0   0   0     0   0   0     0   0   0     0   0   0     0   0   0
  0   0   0     0   0   0     0   0   0     0   0   0   128   0   0   128   0   0   128  32   0   128  32   0
128  32   0   128   0   0   128   0 128   128   0   0   128   0   0   128   0   0   128  32   0   128   0   1
  0   0 129     0   0   1     0   0   0     0  32   0     0   0   0     0   0   0     0   0 128     0   0   0
