P3
8 6
255
  0   0   0   136   0 255     0   0   0     0   0   0    16   0   0   144   0   0
 16   0   0     0   0 255     0   0   0    16   0   0    16   0   0    16   0   0
 16   0   0    16   0 255    16   0   0    16   0   0    16   0   0    16   0   0
 16   0   0   119   0   0    16   0   0    16   0   0    16   0   0    16   0   0
119   0   0    16   0   0    16   0   0    16   0   0    24   0   0    16   0   0
 16  32   0    16  32   0    16  32   0   103   0   0   103   0 128   103   0   0
103   0   0     0   0   0   128  32   0   128   0   1   128   0 129   128   0   1
  0   0   0     0  32   0    16   0   0    16   0   0     0   0 128     0   0   0
