P3
6 8
255
128   0   0   128   0 255     0   0   0     0   0   0     0   0   0     0   0   0     0   0   0     0   0 255
  0   0   0     0   0   0     0   0   0   103   0   0   128   0   0     0   0 255     0   0   0     0   0   0
  0   0   0   103   0   0     0   0   0     0   0   0     0   0   0     0   0   0     0   0   0    16   0   0
  0   0   0     0   0   0     0   0   0     0   0   0     8   0   0    16   0   0     0  32   0     0  32   0
  0  32   0     0   0   0     0   0 128     0   0   0    16   0   0     0   0   0     0  32   0     0   0   1
103   0 129   136   0   1     0   0   0   103  32   0     0   0   0     0   0   0     0   0 128     0   0   0
