P3
8 6
255
  0   0   0     8   0 255   144   0   0     0   0   0     0   0   0     0   0   0
  0   0   0   144   0 255     0   0   0     0   0   0     0   0   0     0   0   0
  0   0   0   128   0 255   103   0   0     0   0   0     0   0   0     0   0   0
  0   0   0   103   0   0     8   0   0   103   0   0   103   0   0   103   0   0
103   0   0   103   0   0   103   0   0   103   0   0   103   0   0   103   0   0
103  32   0   103  32   0   103  32   0   103   0   0   103   0 128   103   0   0
103   0   0   103   0   0   103  32   0   103   0   1   103   0 129   103   0   1
103   0   0   128  32   0     0   0   0     0   0   0     0   0 128     0   0   0
