P3
6 8
255
103   0   0   103   0 255    16   0   0     0   0   0     0   0   0     0   0   0     0   0   0     0   0 255
103   0   0   103   0   0     0   0   0   128   0   0     0   0   0     0   0 255     0   0   0     0   0   0
  0   0   0     0   0   0   103   0   0     0   0   0   103   0   0     0   0   0     0   0   0     0   0   0
  0   0   0     0   0   0     0   0   0     0   0   0     0   0   0     8   0   0     8  32   0     8  32   0
  8  32   0     8   0   0     8   0 128     8   0   0     8   0   0     8   0   0   111  32   0     8   0   1
 16   0 129     0   0   1     8   0   0   152  32   0    24   0   0    24   0   0     8   0 128     8   0   0
