P3
8 6
255
103   0   0   103   0 255   128   0   0     0   0   0     0   0   0     0   0   0
  0   0   0     0   0 255   128   0   0     0   0   0     0   0   0     0   0   0
  0   0   0     0   0 255     0   0   0     0   0   0     0   0   0     0   0   0
  0   0   0     0   0   0     0   0   0     8   0   0     8   0   0     8   0   0
  8   0   0     8   0   0   111   0   0   111   0   0   111   0   0   111   0   0
111  32   0   111  32   0   111  32   0   111   0   0   111   0 128   111   0   0
111   0   0   111   0   0   111  32   0   111   0   1   111   0 129   111   0   1
111   0   0     8  32   0   111   0   0   136   0   0     8   0 128     8   0   0
