P3
8 6
255
  0   0   0     0   0 255   103   0   0     0   0   0     0   0   0   128   0   0
128   0   0     0   0 255     0   0   0   128   0   0     0   0   0     0   0   0
  0   0   0   128   0 255     0   0   0     0   0   0     0   0   0     0   0   0
  0   0   0     0   0   0     0   0   0     0   0   0   103   0   0     0   0   0
  0   0   0   128   0   0     0   0   0     0   0   0     0   0   0     0   0   0
  0  32   0     0  32   0     0  32   0     0   0   0     0   0 128     0   0   0
  0   0   0     0   0   0     0  32   0     0   0   1   103   0 129     0   0   1
  0   0   0     8  32   0     8   0   0     8   0   0     8   0 128     0   0   0
