P3
6 8
255
231   0   0   128   0 255     8   0   0     8   0   0     8   0   0     8   0   0     8   0   0     8   0 255
  8   0   0     8   0   0     8   0   0     8   0   0     8   0   0     8   0 255     8   0   0     8   0   0
111   0   0     8   0   0     8   0   0     8   0   0   111   0   0     8   0   0     8   0   0   136   0   0
136   0   0   136   0   0   136   0   0   136   0   0   136   0   0   136   0   0   136  32   0   136  32   0
231  32   0     0   0   0     0   0 128     0   0   0     0   0   0     0   0   0     0  32   0     0   0   1
  0   0 129     0   0   1     0   0   0     0  32   0   103   0   0   103   0   0     0   0 128     0   0   0
