P3
4 5
255
  0   0   0     0   0   0     0   0   0     0   0   0    16 255 255
 16 255 255     8 255 255     8   0   0     0   0   0     0   0   0
  0   0   0     0   0   0     0   0   0     0   0   0     0   0   0
  0   0   0     0   0   0     0   0   0     0   0   0     0   0   0
