P3
5 4
255
 16   0   0     0   0   0     0   0   0     0   0   0
  0 255 255     0 255 255     0 255 255     0   0   0
  0   0   0     0   0   0     0   0   0     0   0   0
  8   0   0     0   0   0     0   0   0     8   0   0
  0   0   0     0   0   0     0   0   0     0   0   0
