P3
4 5
255
  8   0   0     8   0   0     8   0   0     8   0   0    24 255 255
 24 255 255     8 255 255     8   0   0     8   0   0     8   0   0
  8   0   0     8   0   0     8   0   0     8   0   0     8   0   0
  8   0   0     8   0   0     8   0   0     8   0   0     8   0   0
