P3
4 5
255
  0   0   0     0   0   0     0   0   0     0   0   0    16 255 255
 16 255 255     0 255 255     0   0   0     0   0   0     0   0   0
  8   0   0     8   0   0     8   0   0     8   0   0     0   0   0
  0   0   0     0   0   0     0   0   0     0   0   0     0   0   0
